<svg xmlns="http://www.w3.org/2000/svg" xmlns:xlink="http://www.w3.org/1999/xlink" width="150" zoomAndPan="magnify" viewBox="0 0 112.5 60" height="80" preserveAspectRatio="xMidYMid meet" version="1.0"><defs><g/><clipPath id="9f883329db"><path d="M 16 21 L 24 21 L 24 36 L 16 36 Z M 16 21 " clip-rule="nonzero"/></clipPath><clipPath id="1698cdd8e5"><path d="M 12.621094 25.203125 L 22.59375 20.476562 L 27.320312 30.449219 L 17.347656 35.175781 Z M 12.621094 25.203125 " clip-rule="nonzero"/></clipPath><clipPath id="5466fa0eb7"><path d="M 12.621094 25.203125 L 22.59375 20.476562 L 27.320312 30.449219 L 17.347656 35.175781 Z M 12.621094 25.203125 " clip-rule="nonzero"/></clipPath><clipPath id="47eba3cb76"><path d="M 12.621094 25.203125 L 22.59375 20.476562 L 27.320312 30.449219 L 17.347656 35.175781 Z M 12.621094 25.203125 " clip-rule="nonzero"/></clipPath></defs><g clip-path="url(#9f883329db)"><g clip-path="url(#1698cdd8e5)"><g clip-path="url(#5466fa0eb7)"><g clip-path="url(#47eba3cb76)"><path fill="#000000" d="M 23.25 22.917969 L 22.789062 24.191406 L 20.144531 23.257812 L 20.605469 21.984375 C 20.632812 21.902344 20.695312 21.835938 20.773438 21.796875 C 20.855469 21.757812 20.945312 21.753906 21.027344 21.785156 L 23.050781 22.496094 C 23.132812 22.527344 23.199219 22.585938 23.238281 22.667969 C 23.273438 22.746094 23.28125 22.835938 23.25 22.917969 Z M 19.933594 32.121094 L 19.484375 31.714844 L 22.144531 24.339844 L 22.671875 24.527344 Z M 18.34375 33.789062 L 17.449219 33.472656 L 17.226562 31.546875 L 17.941406 31.503906 L 18.382812 32.019531 C 18.425781 32.070312 18.488281 32.089844 18.550781 32.078125 L 19.222656 31.957031 L 19.75 32.4375 Z M 17.574219 34.527344 L 17.496094 33.863281 L 18.058594 34.0625 Z M 20.886719 23.894531 L 21.808594 24.222656 L 19.144531 31.613281 L 18.589844 31.714844 L 18.222656 31.285156 Z M 20.027344 23.589844 L 20.554688 23.777344 L 17.894531 31.152344 L 17.289062 31.1875 Z M 23.171875 22.164062 L 21.148438 21.449219 C 20.804688 21.328125 20.394531 21.523438 20.269531 21.867188 L 16.863281 31.320312 C 16.855469 31.34375 16.851562 31.375 16.855469 31.40625 C 16.859375 31.4375 17.261719 34.925781 17.261719 34.925781 C 17.265625 34.957031 17.273438 35.027344 17.378906 35.070312 C 17.472656 35.109375 17.546875 35.042969 17.5625 35.03125 C 17.5625 35.03125 20.113281 32.578125 20.132812 32.558594 C 20.148438 32.539062 20.167969 32.511719 20.175781 32.492188 L 23.582031 23.039062 C 23.644531 22.867188 23.636719 22.679688 23.558594 22.515625 C 23.480469 22.351562 23.34375 22.226562 23.171875 22.164062 " fill-opacity="1" fill-rule="nonzero"/></g></g></g></g><g fill="#000000" fill-opacity="1"><g transform="translate(1.562697, 35.256529)"><g><path d="M 7.816406 -7.894531 L 2.414062 -13.910156 L 1.53125 -13.910156 L 1.53125 0 L 4.308594 0 L 4.308594 -7.644531 L 7.816406 -3.964844 L 11.320312 -7.644531 L 11.304688 0 L 14.082031 0 L 14.082031 -13.910156 L 13.21875 -13.910156 Z M 7.816406 -7.894531 "/></g></g></g><g fill="#000000" fill-opacity="1"><g transform="translate(30.037731, 35.256334)"><g><path d="M 8.351562 0 L 11.457031 0 L 8.277344 -5.652344 C 12.300781 -6.820312 11.820312 -13.699219 6.933594 -13.699219 L 1.53125 -13.699219 L 1.53125 0 L 4.273438 0 L 4.273438 -5.230469 L 5.59375 -5.230469 Z M 4.273438 -7.894531 L 4.273438 -10.957031 L 6.6875 -10.957031 C 8.542969 -10.957031 8.542969 -7.894531 6.6875 -7.894531 Z M 4.273438 -7.894531 "/></g></g></g><g fill="#000000" fill-opacity="1"><g transform="translate(41.781776, 35.256334)"><g><path d="M 8.621094 0 L 8.621094 -2.738281 L 4.273438 -2.738281 L 4.273438 -5.480469 L 7.875 -5.480469 L 7.875 -8.21875 L 4.273438 -8.21875 L 4.273438 -10.957031 L 8.390625 -10.957031 L 8.390625 -13.699219 L 1.53125 -13.699219 L 1.53125 0 Z M 8.621094 0 "/></g></g></g><g fill="#000000" fill-opacity="1"><g transform="translate(51.437566, 35.256334)"><g><path d="M 4.273438 0 L 4.273438 -5.230469 L 6.917969 -5.230469 C 12.222656 -5.230469 12.242188 -13.679688 6.917969 -13.679688 L 1.53125 -13.679688 L 1.53125 0 Z M 4.273438 -7.894531 L 4.273438 -10.957031 L 6.6875 -10.957031 C 8.527344 -10.957031 8.527344 -7.894531 6.6875 -7.894531 Z M 4.273438 -7.894531 "/></g></g></g><g fill="#000000" fill-opacity="1"><g transform="translate(62.990027, 35.256334)"><g><path d="M 8.125 0.191406 C 17.550781 0.191406 17.550781 -13.929688 8.125 -13.929688 C -1.304688 -13.929688 -1.304688 0.191406 8.125 0.191406 Z M 8.125 -2.644531 C 2.644531 -2.644531 2.644531 -11.113281 8.125 -11.113281 C 13.601562 -11.113281 13.601562 -2.644531 8.125 -2.644531 Z M 8.125 -2.644531 "/></g></g></g><g fill="#000000" fill-opacity="1"><g transform="translate(79.217116, 35.256334)"><g><path d="M 8.351562 0 L 11.457031 0 L 8.277344 -5.652344 C 12.300781 -6.820312 11.820312 -13.699219 6.933594 -13.699219 L 1.53125 -13.699219 L 1.53125 0 L 4.273438 0 L 4.273438 -5.230469 L 5.59375 -5.230469 Z M 4.273438 -7.894531 L 4.273438 -10.957031 L 6.6875 -10.957031 C 8.542969 -10.957031 8.542969 -7.894531 6.6875 -7.894531 Z M 4.273438 -7.894531 "/></g></g></g><g fill="#000000" fill-opacity="1"><g transform="translate(90.961161, 35.256334)"><g><path d="M 6.53125 0 L 6.53125 -10.957031 L 9.945312 -10.957031 L 9.945312 -13.679688 L 0.382812 -13.679688 L 0.382812 -10.957031 L 3.792969 -10.957031 L 3.792969 0 Z M 6.53125 0 "/></g></g></g><g fill="#000000" fill-opacity="1"><g transform="translate(101.440756, 35.256334)"><g><path d="M 8.621094 0 L 8.621094 -2.738281 L 4.273438 -2.738281 L 4.273438 -5.480469 L 7.875 -5.480469 L 7.875 -8.21875 L 4.273438 -8.21875 L 4.273438 -10.957031 L 8.390625 -10.957031 L 8.390625 -13.699219 L 1.53125 -13.699219 L 1.53125 0 Z M 8.621094 0 "/></g></g></g></svg>