<svg xmlns="http://www.w3.org/2000/svg" xmlns:xlink="http://www.w3.org/1999/xlink" width="500" zoomAndPan="magnify" viewBox="0 0 375 374.999991" height="500" preserveAspectRatio="xMidYMid meet" version="1.0"><defs><g/><clipPath id="39393e0f07"><path d="M 242 30 L 358 30 L 358 266 L 242 266 Z M 242 30 " clip-rule="nonzero"/></clipPath><clipPath id="37d0cb1f51"><path d="M 169.664062 95.65625 L 340.421875 14.726562 L 421.351562 185.484375 L 250.59375 266.414062 Z M 169.664062 95.65625 " clip-rule="nonzero"/></clipPath><clipPath id="965008af87"><path d="M 169.664062 95.65625 L 340.421875 14.726562 L 421.351562 185.484375 L 250.59375 266.414062 Z M 169.664062 95.65625 " clip-rule="nonzero"/></clipPath></defs><g clip-path="url(#39393e0f07)"><g clip-path="url(#37d0cb1f51)"><g clip-path="url(#965008af87)"><path fill="#ffffff" d="M 351.429688 56.863281 L 343.632812 78.714844 L 298.332031 62.546875 L 306.132812 40.695312 C 306.636719 39.285156 307.671875 38.144531 309.042969 37.496094 C 310.421875 36.839844 311.964844 36.761719 313.382812 37.265625 L 347.996094 49.621094 C 349.414062 50.128906 350.554688 51.160156 351.207031 52.539062 C 351.855469 53.910156 351.933594 55.445312 351.429688 56.863281 Z M 295.050781 214.820312 L 287.367188 207.804688 L 332.558594 81.207031 L 341.589844 84.433594 Z M 267.953125 243.359375 L 252.664062 237.902344 L 248.769531 204.785156 L 260.988281 204.125 L 268.558594 213.007812 C 269.261719 213.832031 270.347656 214.21875 271.410156 214.027344 L 282.898438 211.9375 L 291.941406 220.199219 Z M 254.804688 256.054688 L 253.457031 244.628906 L 263.082031 248.066406 Z M 311.046875 73.53125 L 326.835938 79.167969 L 281.5625 206.007812 L 272.046875 207.742188 L 265.773438 200.375 Z M 296.292969 68.265625 L 305.328125 71.488281 L 260.140625 198.085938 L 249.765625 198.652344 Z M 350.039062 43.902344 L 315.421875 31.546875 C 309.523438 29.449219 302.511719 32.769531 300.414062 38.65625 L 242.511719 200.910156 C 242.359375 201.339844 242.292969 201.832031 242.371094 202.378906 C 242.449219 202.925781 249.492188 262.851562 249.492188 262.851562 C 249.558594 263.425781 249.722656 264.617188 251.484375 265.355469 C 253.074219 266.023438 254.371094 264.910156 254.613281 264.679688 C 254.613281 264.679688 298.164062 222.683594 298.480469 222.320312 C 298.796875 221.957031 299.09375 221.546875 299.234375 221.160156 L 357.144531 58.90625 C 358.199219 55.964844 358.039062 52.777344 356.695312 49.9375 C 355.34375 47.09375 352.980469 44.953125 350.039062 43.902344 " fill-opacity="1" fill-rule="nonzero"/></g></g></g><g fill="#ffffff" fill-opacity="1"><g transform="translate(-19.678818, 267.810605)"><g><path d="M 133.835938 -135.148438 L 41.332031 -238.152344 L 26.242188 -238.152344 L 26.242188 0 L 73.808594 0 L 73.808594 -130.886719 L 133.835938 -67.902344 L 193.867188 -130.886719 L 193.539062 0 L 241.105469 0 L 241.105469 -238.152344 L 226.34375 -238.152344 Z M 133.835938 -135.148438 "/></g></g></g><g fill="#ffffff" fill-opacity="1"><g transform="translate(-0.50555, 355.502103)"><g><path d="M 37.234375 0 L 51.066406 0 L 36.890625 -25.191406 C 54.824219 -30.402344 52.691406 -61.058594 30.914062 -61.058594 L 6.832031 -61.058594 L 6.832031 0 L 19.042969 0 L 19.042969 -23.3125 L 24.9375 -23.3125 Z M 19.042969 -35.183594 L 19.042969 -48.847656 L 29.804688 -48.847656 C 38.085938 -48.847656 38.085938 -35.183594 29.804688 -35.183594 Z M 19.042969 -35.183594 "/></g></g></g><g fill="#ffffff" fill-opacity="1"><g transform="translate(51.841491, 355.502103)"><g><path d="M 38.429688 0 L 38.429688 -12.210938 L 19.042969 -12.210938 L 19.042969 -24.421875 L 35.097656 -24.421875 L 35.097656 -36.636719 L 19.042969 -36.636719 L 19.042969 -48.847656 L 37.402344 -48.847656 L 37.402344 -61.058594 L 6.832031 -61.058594 L 6.832031 0 Z M 38.429688 0 "/></g></g></g><g fill="#ffffff" fill-opacity="1"><g transform="translate(94.880495, 355.502103)"><g><path d="M 19.042969 0 L 19.042969 -23.3125 L 30.828125 -23.3125 C 54.484375 -23.3125 54.570312 -60.972656 30.828125 -60.972656 L 6.832031 -60.972656 L 6.832031 0 Z M 19.042969 -35.183594 L 19.042969 -48.847656 L 29.804688 -48.847656 C 38 -48.847656 38 -35.183594 29.804688 -35.183594 Z M 19.042969 -35.183594 "/></g></g></g><g fill="#ffffff" fill-opacity="1"><g transform="translate(146.373586, 355.502103)"><g><path d="M 36.207031 0.855469 C 78.222656 0.855469 78.222656 -62.082031 36.207031 -62.082031 C -5.808594 -62.082031 -5.808594 0.855469 36.207031 0.855469 Z M 36.207031 -11.785156 C 11.785156 -11.785156 11.785156 -49.53125 36.207031 -49.53125 C 60.632812 -49.53125 60.632812 -11.785156 36.207031 -11.785156 Z M 36.207031 -11.785156 "/></g></g></g><g fill="#ffffff" fill-opacity="1"><g transform="translate(218.70302, 355.502103)"><g><path d="M 37.234375 0 L 51.066406 0 L 36.890625 -25.191406 C 54.824219 -30.402344 52.691406 -61.058594 30.914062 -61.058594 L 6.832031 -61.058594 L 6.832031 0 L 19.042969 0 L 19.042969 -23.3125 L 24.9375 -23.3125 Z M 19.042969 -35.183594 L 19.042969 -48.847656 L 29.804688 -48.847656 C 38.085938 -48.847656 38.085938 -35.183594 29.804688 -35.183594 Z M 19.042969 -35.183594 "/></g></g></g><g fill="#ffffff" fill-opacity="1"><g transform="translate(271.05006, 355.502103)"><g><path d="M 29.121094 0 L 29.121094 -48.847656 L 44.320312 -48.847656 L 44.320312 -60.972656 L 1.707031 -60.972656 L 1.707031 -48.847656 L 16.910156 -48.847656 L 16.910156 0 Z M 29.121094 0 "/></g></g></g><g fill="#ffffff" fill-opacity="1"><g transform="translate(317.761033, 355.502103)"><g><path d="M 38.429688 0 L 38.429688 -12.210938 L 19.042969 -12.210938 L 19.042969 -24.421875 L 35.097656 -24.421875 L 35.097656 -36.636719 L 19.042969 -36.636719 L 19.042969 -48.847656 L 37.402344 -48.847656 L 37.402344 -61.058594 L 6.832031 -61.058594 L 6.832031 0 Z M 38.429688 0 "/></g></g></g></svg>