<svg xmlns="http://www.w3.org/2000/svg" xmlns:xlink="http://www.w3.org/1999/xlink" width="150" zoomAndPan="magnify" viewBox="0 0 112.5 60" height="80" preserveAspectRatio="xMidYMid meet" version="1.0"><defs><g/><clipPath id="14bdf9a2d5"><path d="M 16 21 L 24 21 L 24 36 L 16 36 Z M 16 21 " clip-rule="nonzero"/></clipPath><clipPath id="03a8948130"><path d="M 12.621094 25.203125 L 22.59375 20.476562 L 27.320312 30.449219 L 17.347656 35.175781 Z M 12.621094 25.203125 " clip-rule="nonzero"/></clipPath><clipPath id="e84fa163e1"><path d="M 12.621094 25.203125 L 22.59375 20.476562 L 27.320312 30.449219 L 17.347656 35.175781 Z M 12.621094 25.203125 " clip-rule="nonzero"/></clipPath></defs><g clip-path="url(#14bdf9a2d5)"><g clip-path="url(#03a8948130)"><g clip-path="url(#e84fa163e1)"><path fill="#ffffff" d="M 23.238281 22.9375 L 22.78125 24.214844 L 20.136719 23.269531 L 20.589844 21.992188 C 20.621094 21.910156 20.679688 21.84375 20.761719 21.804688 C 20.84375 21.769531 20.933594 21.761719 21.015625 21.792969 L 23.035156 22.515625 C 23.121094 22.542969 23.1875 22.605469 23.222656 22.683594 C 23.261719 22.765625 23.265625 22.855469 23.238281 22.9375 Z M 19.945312 32.164062 L 19.496094 31.753906 L 22.136719 24.359375 L 22.664062 24.546875 Z M 18.363281 33.832031 L 17.46875 33.511719 L 17.242188 31.578125 L 17.953125 31.539062 L 18.398438 32.058594 C 18.4375 32.105469 18.5 32.128906 18.5625 32.117188 L 19.234375 31.996094 L 19.761719 32.476562 Z M 17.59375 34.574219 L 17.515625 33.90625 L 18.078125 34.105469 Z M 20.878906 23.910156 L 21.800781 24.242188 L 19.15625 31.648438 L 18.601562 31.75 L 18.234375 31.320312 Z M 20.015625 23.605469 L 20.542969 23.792969 L 17.90625 31.1875 L 17.300781 31.21875 Z M 23.15625 22.179688 L 21.132812 21.457031 C 20.789062 21.335938 20.378906 21.53125 20.257812 21.875 L 16.875 31.351562 C 16.867188 31.375 16.863281 31.40625 16.867188 31.4375 C 16.871094 31.46875 17.28125 34.96875 17.28125 34.96875 C 17.285156 35.003906 17.296875 35.074219 17.398438 35.117188 C 17.492188 35.15625 17.566406 35.089844 17.582031 35.078125 C 17.582031 35.078125 20.125 32.625 20.144531 32.601562 C 20.164062 32.582031 20.179688 32.558594 20.1875 32.535156 L 23.570312 23.058594 C 23.632812 22.886719 23.625 22.699219 23.546875 22.53125 C 23.464844 22.367188 23.328125 22.242188 23.15625 22.179688 " fill-opacity="1" fill-rule="nonzero"/></g></g></g><g fill="#ffffff" fill-opacity="1"><g transform="translate(1.562697, 35.256529)"><g><path d="M 7.816406 -7.894531 L 2.414062 -13.910156 L 1.53125 -13.910156 L 1.53125 0 L 4.308594 0 L 4.308594 -7.644531 L 7.816406 -3.964844 L 11.320312 -7.644531 L 11.304688 0 L 14.082031 0 L 14.082031 -13.910156 L 13.21875 -13.910156 Z M 7.816406 -7.894531 "/></g></g></g><g fill="#ffffff" fill-opacity="1"><g transform="translate(30.037731, 35.256334)"><g><path d="M 8.351562 0 L 11.457031 0 L 8.277344 -5.652344 C 12.300781 -6.820312 11.820312 -13.699219 6.933594 -13.699219 L 1.53125 -13.699219 L 1.53125 0 L 4.273438 0 L 4.273438 -5.230469 L 5.59375 -5.230469 Z M 4.273438 -7.894531 L 4.273438 -10.957031 L 6.6875 -10.957031 C 8.542969 -10.957031 8.542969 -7.894531 6.6875 -7.894531 Z M 4.273438 -7.894531 "/></g></g></g><g fill="#ffffff" fill-opacity="1"><g transform="translate(41.781776, 35.256334)"><g><path d="M 8.621094 0 L 8.621094 -2.738281 L 4.273438 -2.738281 L 4.273438 -5.480469 L 7.875 -5.480469 L 7.875 -8.21875 L 4.273438 -8.21875 L 4.273438 -10.957031 L 8.390625 -10.957031 L 8.390625 -13.699219 L 1.53125 -13.699219 L 1.53125 0 Z M 8.621094 0 "/></g></g></g><g fill="#ffffff" fill-opacity="1"><g transform="translate(51.437566, 35.256334)"><g><path d="M 4.273438 0 L 4.273438 -5.230469 L 6.917969 -5.230469 C 12.222656 -5.230469 12.242188 -13.679688 6.917969 -13.679688 L 1.53125 -13.679688 L 1.53125 0 Z M 4.273438 -7.894531 L 4.273438 -10.957031 L 6.6875 -10.957031 C 8.527344 -10.957031 8.527344 -7.894531 6.6875 -7.894531 Z M 4.273438 -7.894531 "/></g></g></g><g fill="#ffffff" fill-opacity="1"><g transform="translate(62.990027, 35.256334)"><g><path d="M 8.125 0.191406 C 17.550781 0.191406 17.550781 -13.929688 8.125 -13.929688 C -1.304688 -13.929688 -1.304688 0.191406 8.125 0.191406 Z M 8.125 -2.644531 C 2.644531 -2.644531 2.644531 -11.113281 8.125 -11.113281 C 13.601562 -11.113281 13.601562 -2.644531 8.125 -2.644531 Z M 8.125 -2.644531 "/></g></g></g><g fill="#ffffff" fill-opacity="1"><g transform="translate(79.217116, 35.256334)"><g><path d="M 8.351562 0 L 11.457031 0 L 8.277344 -5.652344 C 12.300781 -6.820312 11.820312 -13.699219 6.933594 -13.699219 L 1.53125 -13.699219 L 1.53125 0 L 4.273438 0 L 4.273438 -5.230469 L 5.59375 -5.230469 Z M 4.273438 -7.894531 L 4.273438 -10.957031 L 6.6875 -10.957031 C 8.542969 -10.957031 8.542969 -7.894531 6.6875 -7.894531 Z M 4.273438 -7.894531 "/></g></g></g><g fill="#ffffff" fill-opacity="1"><g transform="translate(90.961161, 35.256334)"><g><path d="M 6.53125 0 L 6.53125 -10.957031 L 9.945312 -10.957031 L 9.945312 -13.679688 L 0.382812 -13.679688 L 0.382812 -10.957031 L 3.792969 -10.957031 L 3.792969 0 Z M 6.53125 0 "/></g></g></g><g fill="#ffffff" fill-opacity="1"><g transform="translate(101.440756, 35.256334)"><g><path d="M 8.621094 0 L 8.621094 -2.738281 L 4.273438 -2.738281 L 4.273438 -5.480469 L 7.875 -5.480469 L 7.875 -8.21875 L 4.273438 -8.21875 L 4.273438 -10.957031 L 8.390625 -10.957031 L 8.390625 -13.699219 L 1.53125 -13.699219 L 1.53125 0 Z M 8.621094 0 "/></g></g></g></svg>