<svg xmlns="http://www.w3.org/2000/svg" xmlns:xlink="http://www.w3.org/1999/xlink" width="500" zoomAndPan="magnify" viewBox="0 0 375 374.999991" height="500" preserveAspectRatio="xMidYMid meet" version="1.0"><defs><g/><clipPath id="169860b42c"><path d="M 242 30 L 359 30 L 359 265 L 242 265 Z M 242 30 " clip-rule="nonzero"/></clipPath><clipPath id="80a50c642b"><path d="M 169.664062 95.65625 L 340.421875 14.726562 L 421.351562 185.484375 L 250.59375 266.414062 Z M 169.664062 95.65625 " clip-rule="nonzero"/></clipPath><clipPath id="018e984ea1"><path d="M 169.664062 95.65625 L 340.421875 14.726562 L 421.351562 185.484375 L 250.59375 266.414062 Z M 169.664062 95.65625 " clip-rule="nonzero"/></clipPath><clipPath id="fdf261db11"><path d="M 169.664062 95.65625 L 340.421875 14.726562 L 421.351562 185.484375 L 250.59375 266.414062 Z M 169.664062 95.65625 " clip-rule="nonzero"/></clipPath></defs><g clip-path="url(#169860b42c)"><g clip-path="url(#80a50c642b)"><g clip-path="url(#018e984ea1)"><g clip-path="url(#fdf261db11)"><path fill="#000000" d="M 351.671875 56.546875 L 343.8125 78.347656 L 298.519531 62.339844 L 306.375 40.539062 C 306.882812 39.128906 307.921875 37.992188 309.296875 37.339844 C 310.675781 36.6875 312.222656 36.601562 313.640625 37.101562 L 348.253906 49.332031 C 349.667969 49.835938 350.808594 50.863281 351.457031 52.234375 C 352.105469 53.601562 352.179688 55.132812 351.671875 56.546875 Z M 294.863281 214.144531 L 287.195312 207.167969 L 332.722656 80.859375 L 341.757812 84.054688 Z M 267.679688 242.660156 L 252.386719 237.257812 L 248.570312 204.253906 L 260.800781 203.5625 L 268.355469 212.402344 C 269.054688 213.222656 270.144531 213.605469 271.207031 213.410156 L 282.707031 211.300781 L 291.742188 219.511719 Z M 254.488281 255.347656 L 253.164062 243.960938 L 262.789062 247.363281 Z M 311.214844 73.257812 L 327.003906 78.839844 L 281.386719 205.390625 L 271.859375 207.144531 L 265.597656 199.816406 Z M 296.464844 68.046875 L 305.496094 71.238281 L 259.96875 197.546875 L 249.582031 198.136719 Z M 350.308594 43.628906 L 315.695312 31.398438 C 309.796875 29.320312 302.773438 32.644531 300.65625 38.519531 L 242.320312 200.40625 C 242.164062 200.835938 242.097656 201.324219 242.171875 201.867188 C 242.25 202.414062 249.152344 262.136719 249.152344 262.136719 C 249.21875 262.707031 249.378906 263.894531 251.140625 264.628906 C 252.730469 265.285156 254.03125 264.175781 254.273438 263.945312 C 254.273438 263.945312 297.964844 221.976562 298.28125 221.613281 C 298.597656 221.25 298.894531 220.839844 299.035156 220.453125 L 357.386719 58.570312 C 358.449219 55.632812 358.296875 52.457031 356.957031 49.628906 C 355.613281 46.796875 353.253906 44.671875 350.308594 43.628906 " fill-opacity="1" fill-rule="nonzero"/></g></g></g></g><g fill="#000000" fill-opacity="1"><g transform="translate(-19.678818, 267.810605)"><g><path d="M 133.835938 -135.148438 L 41.332031 -238.152344 L 26.242188 -238.152344 L 26.242188 0 L 73.808594 0 L 73.808594 -130.886719 L 133.835938 -67.902344 L 193.867188 -130.886719 L 193.539062 0 L 241.105469 0 L 241.105469 -238.152344 L 226.34375 -238.152344 Z M 133.835938 -135.148438 "/></g></g></g><g fill="#000000" fill-opacity="1"><g transform="translate(-0.50555, 355.502103)"><g><path d="M 37.234375 0 L 51.066406 0 L 36.890625 -25.191406 C 54.824219 -30.402344 52.691406 -61.058594 30.914062 -61.058594 L 6.832031 -61.058594 L 6.832031 0 L 19.042969 0 L 19.042969 -23.3125 L 24.9375 -23.3125 Z M 19.042969 -35.183594 L 19.042969 -48.847656 L 29.804688 -48.847656 C 38.085938 -48.847656 38.085938 -35.183594 29.804688 -35.183594 Z M 19.042969 -35.183594 "/></g></g></g><g fill="#000000" fill-opacity="1"><g transform="translate(51.841491, 355.502103)"><g><path d="M 38.429688 0 L 38.429688 -12.210938 L 19.042969 -12.210938 L 19.042969 -24.421875 L 35.097656 -24.421875 L 35.097656 -36.636719 L 19.042969 -36.636719 L 19.042969 -48.847656 L 37.402344 -48.847656 L 37.402344 -61.058594 L 6.832031 -61.058594 L 6.832031 0 Z M 38.429688 0 "/></g></g></g><g fill="#000000" fill-opacity="1"><g transform="translate(94.880495, 355.502103)"><g><path d="M 19.042969 0 L 19.042969 -23.3125 L 30.828125 -23.3125 C 54.484375 -23.3125 54.570312 -60.972656 30.828125 -60.972656 L 6.832031 -60.972656 L 6.832031 0 Z M 19.042969 -35.183594 L 19.042969 -48.847656 L 29.804688 -48.847656 C 38 -48.847656 38 -35.183594 29.804688 -35.183594 Z M 19.042969 -35.183594 "/></g></g></g><g fill="#000000" fill-opacity="1"><g transform="translate(146.373586, 355.502103)"><g><path d="M 36.207031 0.855469 C 78.222656 0.855469 78.222656 -62.082031 36.207031 -62.082031 C -5.808594 -62.082031 -5.808594 0.855469 36.207031 0.855469 Z M 36.207031 -11.785156 C 11.785156 -11.785156 11.785156 -49.53125 36.207031 -49.53125 C 60.632812 -49.53125 60.632812 -11.785156 36.207031 -11.785156 Z M 36.207031 -11.785156 "/></g></g></g><g fill="#000000" fill-opacity="1"><g transform="translate(218.70302, 355.502103)"><g><path d="M 37.234375 0 L 51.066406 0 L 36.890625 -25.191406 C 54.824219 -30.402344 52.691406 -61.058594 30.914062 -61.058594 L 6.832031 -61.058594 L 6.832031 0 L 19.042969 0 L 19.042969 -23.3125 L 24.9375 -23.3125 Z M 19.042969 -35.183594 L 19.042969 -48.847656 L 29.804688 -48.847656 C 38.085938 -48.847656 38.085938 -35.183594 29.804688 -35.183594 Z M 19.042969 -35.183594 "/></g></g></g><g fill="#000000" fill-opacity="1"><g transform="translate(271.05006, 355.502103)"><g><path d="M 29.121094 0 L 29.121094 -48.847656 L 44.320312 -48.847656 L 44.320312 -60.972656 L 1.707031 -60.972656 L 1.707031 -48.847656 L 16.910156 -48.847656 L 16.910156 0 Z M 29.121094 0 "/></g></g></g><g fill="#000000" fill-opacity="1"><g transform="translate(317.761033, 355.502103)"><g><path d="M 38.429688 0 L 38.429688 -12.210938 L 19.042969 -12.210938 L 19.042969 -24.421875 L 35.097656 -24.421875 L 35.097656 -36.636719 L 19.042969 -36.636719 L 19.042969 -48.847656 L 37.402344 -48.847656 L 37.402344 -61.058594 L 6.832031 -61.058594 L 6.832031 0 Z M 38.429688 0 "/></g></g></g></svg>